<mxfile host="app.diagrams.net" agent="Mozilla/5.0 (X11; Linux x86_64) AppleWebKit/537.36 (KHTML, like Gecko) Chrome/139.0.0.0 Safari/537.36" version="28.2.3">
  <diagram name="Page-1" id="16d9CS4kvnW5NmvAJsOH">
    <mxGraphModel dx="679" dy="361" grid="1" gridSize="10" guides="1" tooltips="1" connect="1" arrows="1" fold="1" page="1" pageScale="1" pageWidth="850" pageHeight="1100" math="0" shadow="0">
      <root>
        <mxCell id="0" />
        <mxCell id="1" parent="0" />
        <mxCell id="qEVDBMWOf7xNudhSRJ8E-6" value="EMA" style="rounded=0;whiteSpace=wrap;html=1;fillColor=none;align=center;verticalAlign=top;spacingLeft=8;" vertex="1" parent="1">
          <mxGeometry x="310" y="40" width="150" height="90" as="geometry" />
        </mxCell>
        <mxCell id="qEVDBMWOf7xNudhSRJ8E-5" value="Kernel Space" style="rounded=0;whiteSpace=wrap;html=1;fillColor=none;" vertex="1" parent="1">
          <mxGeometry x="40" y="140" width="420" height="60" as="geometry" />
        </mxCell>
        <mxCell id="qEVDBMWOf7xNudhSRJ8E-4" value="rezen_energy_daemon" style="rounded=0;whiteSpace=wrap;html=1;fillColor=none;align=left;verticalAlign=top;spacingLeft=8;" vertex="1" parent="1">
          <mxGeometry x="40" y="40" width="260" height="90" as="geometry" />
        </mxCell>
        <mxCell id="qEVDBMWOf7xNudhSRJ8E-8" style="edgeStyle=orthogonalEdgeStyle;rounded=0;orthogonalLoop=1;jettySize=auto;html=1;exitX=0;exitY=0.5;exitDx=0;exitDy=0;" edge="1" parent="1">
          <mxGeometry relative="1" as="geometry">
            <mxPoint x="195" y="165" as="sourcePoint" />
            <mxPoint x="195" y="165" as="targetPoint" />
          </mxGeometry>
        </mxCell>
        <mxCell id="qEVDBMWOf7xNudhSRJ8E-11" value="energy counter" style="rounded=0;whiteSpace=wrap;html=1;" vertex="1" parent="1">
          <mxGeometry x="190" y="70" width="90" height="50" as="geometry" />
        </mxCell>
        <mxCell id="qEVDBMWOf7xNudhSRJ8E-16" style="edgeStyle=orthogonalEdgeStyle;rounded=0;orthogonalLoop=1;jettySize=auto;html=1;exitX=1;exitY=0.5;exitDx=0;exitDy=0;entryX=0;entryY=0.5;entryDx=0;entryDy=0;" edge="1" parent="1" source="qEVDBMWOf7xNudhSRJ8E-12" target="qEVDBMWOf7xNudhSRJ8E-11">
          <mxGeometry relative="1" as="geometry" />
        </mxCell>
        <mxCell id="qEVDBMWOf7xNudhSRJ8E-12" value="polling thread" style="rounded=0;whiteSpace=wrap;html=1;fillColor=none;dashed=1;verticalAlign=top;" vertex="1" parent="1">
          <mxGeometry x="50" y="70" width="120" height="50" as="geometry" />
        </mxCell>
        <mxCell id="qEVDBMWOf7xNudhSRJ8E-2" value="rezen_smu" style="rounded=0;whiteSpace=wrap;html=1;" vertex="1" parent="1">
          <mxGeometry x="62.5" y="100" width="95" height="50" as="geometry" />
        </mxCell>
        <mxCell id="qEVDBMWOf7xNudhSRJ8E-15" style="edgeStyle=orthogonalEdgeStyle;rounded=0;orthogonalLoop=1;jettySize=auto;html=1;entryX=1;entryY=0.5;entryDx=0;entryDy=0;" edge="1" parent="1" source="qEVDBMWOf7xNudhSRJ8E-14" target="qEVDBMWOf7xNudhSRJ8E-11">
          <mxGeometry relative="1" as="geometry" />
        </mxCell>
        <mxCell id="qEVDBMWOf7xNudhSRJ8E-14" value="ryzen_plugin" style="rounded=0;whiteSpace=wrap;html=1;" vertex="1" parent="1">
          <mxGeometry x="325" y="70" width="120" height="50" as="geometry" />
        </mxCell>
      </root>
    </mxGraphModel>
  </diagram>
</mxfile>
